# xmcd CD database file
#
# Track frame offsets:
#	150
#	48252
#	70609
#	86215
#	100100
#	121371
#	140146
#	156354
#	181842
#	202889
#	220504
#	236659
#	250968
#	264574
#	283805
#	302548
#	319365
#
# Disc length: 4513 seconds
#
# Revision: 0
# Processed by: cddbd v1.5.2PL0 Copyright (c) Steve Scherf et al.
# Submitted via: CDex 1.70beta2
#
DISCID=f7119f11
DTITLE=John Wilson - Gershwin In Hollywood
DYEAR=2016
DGENRE=Jazz
TTITLE0=Overture
TTITLE1=Treat Me Rough
TTITLE2=But Not For Me
TTITLE3=Slap The Bass
TTITLE4=They Can't Take That Away From Me
TTITLE5=Strike Up The Band
TTITLE6=Funny Face
TTITLE7=How Long Has This Been Going On?
TTITLE8=Let's Kiss And Make Up
TTITLE9=Aren't You Kind Of Glad We Did?
TTITLE10=Oh Lady, Be Good!
TTITLE11=The Man I Love
TTITLE12=S Wonderful
TTITLE13=For You, For Me, Forevermore
TTITLE14=Shall We Dance?
TTITLE15=Someone To Watch Over Me
TTITLE16=Clap Yo' Hands
EXTD=YEAR: 2016
EXTT0=
EXTT1=
EXTT2=
EXTT3=
EXTT4=
EXTT5=
EXTT6=
EXTT7=
EXTT8=
EXTT9=
EXTT10=
EXTT11=
EXTT12=
EXTT13=
EXTT14=
EXTT15=
EXTT16=
PLAYORDER=
